<svg width="24" height="24" viewBox="0 0 24 24" fill="none" xmlns="http://www.w3.org/2000/svg">
<path d="M21.577 3.38101C21.139 2.94201 20.425 2.94201 19.986 3.38101L8.61397 14.754L4.01396 10.154C3.57596 9.71501 2.86196 9.71501 2.42296 10.154L0.329965 12.248C-0.108035 12.686 -0.108035 13.4 0.329965 13.839L7.69396 21.203C7.93996 21.449 8.26696 21.585 8.61397 21.585C8.96097 21.585 9.28796 21.449 9.53397 21.203L23.67 7.06501C24.108 6.62701 24.108 5.91301 23.67 5.47401L21.577 3.38101ZM22.963 6.35801L8.82696 20.496C8.71396 20.611 8.51597 20.611 8.40197 20.496L1.03696 13.132C0.987965 13.083 0.987965 13.004 1.03696 12.955L3.13096 10.861C3.15196 10.84 3.18596 10.83 3.21896 10.83C3.25196 10.83 3.28596 10.841 3.30696 10.861L8.26096 15.814C8.44896 16.002 8.78096 16.002 8.96797 15.814L20.693 4.08801C20.742 4.03901 20.821 4.03901 20.87 4.08801L22.964 6.18201C23.012 6.23001 23.012 6.31001 22.963 6.35801Z" fill="#1DFF85"/>
</svg>
