<svg width="22" height="22" viewBox="0 0 22 22" fill="none" xmlns="http://www.w3.org/2000/svg">
<path d="M0.219822 5.90753L1.32195 4.80548C1.46881 4.65831 1.63798 4.58496 1.82923 4.58496C2.02003 4.58496 2.18912 4.65831 2.33598 4.80548L10.9999 13.4689L19.6634 4.80571C19.8103 4.65854 19.9794 4.58519 20.1705 4.58519C20.3616 4.58519 20.5307 4.65854 20.6775 4.80571L21.7795 5.90784C21.9266 6.0547 22 6.22379 22 6.41489C22 6.60584 21.9264 6.77493 21.7795 6.92179L11.5069 17.1946C11.3601 17.3415 11.1909 17.4149 10.9999 17.4149C10.8089 17.4149 10.64 17.3415 10.4932 17.1946L0.219822 6.92179C0.0729637 6.77485 0 6.60576 0 6.41489C0 6.22379 0.0729637 6.0547 0.219822 5.90753Z" 
fill="#D53075"/>
</svg>
