<svg width="48" height="48" viewBox="0 0 48 48" fill="none" xmlns="http://www.w3.org/2000/svg">
<path d="M24 21C22.0222 21 20.0888 20.4135 18.4443 19.3147C16.7998 18.2159 15.5181 16.6541 14.7612 14.8268C14.0043 12.9996 13.8063 10.9889 14.1922 9.0491C14.578 7.10929 15.5304 5.32746 16.9289 3.92894C18.3275 2.53041 20.1093 1.578 22.0491 1.19215C23.9889 0.806299 25.9996 1.00433 27.8268 1.76121C29.6541 2.51809 31.2159 3.79981 32.3147 5.4443C33.4135 7.08879 34 9.02219 34 11C34 13.6522 32.9464 16.1957 31.0711 18.0711C29.1957 19.9464 26.6522 21 24 21ZM24 5C22.8133 5 21.6533 5.3519 20.6666 6.01119C19.6799 6.67048 18.9109 7.60755 18.4567 8.7039C18.0026 9.80026 17.8838 11.0067 18.1153 12.1705C18.3468 13.3344 18.9182 14.4035 19.7574 15.2426C20.5965 16.0818 21.6656 16.6532 22.8295 16.8847C23.9933 17.1162 25.1997 16.9974 26.2961 16.5433C27.3925 16.0892 28.3295 15.3201 28.9888 14.3334C29.6481 13.3467 30 12.1867 30 11C30 9.40871 29.3679 7.88258 28.2426 6.75736C27.1174 5.63215 25.5913 5 24 5Z" fill="black"/>
<path d="M42 47H6C5.46957 47 4.96086 46.7893 4.58579 46.4142C4.21071 46.0391 4 45.5304 4 45V39C4 34.7565 5.68571 30.6869 8.68629 27.6863C11.6869 24.6857 15.7565 23 20 23H28C32.2435 23 36.3131 24.6857 39.3137 27.6863C42.3143 30.6869 44 34.7565 44 39V45C44 45.5304 43.7893 46.0391 43.4142 46.4142C43.0391 46.7893 42.5304 47 42 47ZM8 43H40V39C40 35.8174 38.7357 32.7652 36.4853 30.5147C34.2348 28.2643 31.1826 27 28 27H20C16.8174 27 13.7652 28.2643 11.5147 30.5147C9.26428 32.7652 8 35.8174 8 39V43Z" fill="black"/>
</svg>
