<svg width="35" height="32" viewBox="0 0 35 32" fill="none" xmlns="http://www.w3.org/2000/svg">
<path d="M9.77275 4.01404C9.71294 4.01875 9.51914 4.03994 9.34209 4.06114C5.78913 4.46618 2.87259 7.11074 2.162 10.5701C1.84379 12.1243 2.0017 14.1189 2.57113 15.8051C3.17406 17.5783 4.18611 19.1278 5.91354 20.9199C6.7318 21.7677 7.43043 22.4035 9.71294 24.3816C10.2656 24.8597 10.8805 25.3942 11.0767 25.5709C13.5267 27.7374 15.2278 29.5554 16.6897 31.5688L17.0007 31.9998H17.3165L17.6323 31.9974L17.9434 31.5453C19.276 29.6095 20.8431 27.8716 23.1711 25.7498C23.6281 25.3307 24.1473 24.8715 25.6283 23.5763C27.9156 21.5699 29.0855 20.4136 30.033 19.2197C31.5714 17.2769 32.349 15.4448 32.5787 13.2076C32.6241 12.746 32.6194 11.6416 32.5667 11.2412C32.3155 9.34555 31.5116 7.71595 30.1789 6.40427C28.8463 5.09259 27.1882 4.29898 25.2646 4.05407C24.8028 3.99755 23.798 3.99755 23.3266 4.05407C21.5729 4.27308 20.0273 4.96542 18.7329 6.11226C18.2759 6.51731 17.7615 7.09426 17.4529 7.54876C17.3811 7.65473 17.3165 7.74186 17.3093 7.74186C17.3022 7.74186 17.2376 7.65473 17.1658 7.54876C16.8571 7.09426 16.3427 6.51731 15.8858 6.11226C14.6153 4.98662 13.0865 4.29192 11.3925 4.07056C11.0432 4.02346 10.0479 3.99049 9.77275 4.01404Z" fill="#B04949"/>
</svg>
