<svg width="62" height="62" viewBox="0 0 62 62" fill="none" xmlns="http://www.w3.org/2000/svg">
<g opacity="0.38">
<rect x="0.5" y="0.5" width="60" height="60" rx="30" fill="white" stroke="#263238"/>
</g>
<path d="M31 11C33.2543 11 35.4163 11.9219 37.0104 13.5628C38.6045 15.2038 39.5 17.4294 39.5 19.75C39.5 22.0706 38.6045 24.2962 37.0104 25.9372C35.4163 27.5781 33.2543 28.5 31 28.5C28.7457 28.5 26.5837 27.5781 24.9896 25.9372C23.3955 24.2962 22.5 22.0706 22.5 19.75C22.5 17.4294 23.3955 15.2038 24.9896 13.5628C26.5837 11.9219 28.7457 11 31 11ZM31 32.875C40.3925 32.875 48 36.7906 48 41.625V46H14V41.625C14 36.7906 21.6075 32.875 31 32.875Z" fill="#979797"/>
</svg>
