<svg width="31" height="28" viewBox="0 0 31 28" fill="none" xmlns="http://www.w3.org/2000/svg">
<path d="M26.2414 4.29821C20.308 -1.06099 10.6918 -1.06099 4.7584 4.29821C-1.175 9.65741 -1.175 18.343 4.7584 23.7022C10.6918 29.0614 20.308 29.0614 26.2414 23.7022C32.1717 18.343 32.1717 9.65741 26.2414 4.29821ZM23.5568 6.72301C27.5496 10.3294 27.9588 15.9434 24.7875 19.9614L8.9 5.61141C13.3485 2.74981 19.564 3.11941 23.5568 6.72301ZM7.443 21.2774C3.4502 17.671 3.041 12.057 6.2123 8.03901L22.0998 22.389C17.6513 25.2506 11.4358 24.881 7.443 21.2774Z" fill="#9A9A9A"/>
</svg>
