<svg width="26" height="28" viewBox="0 0 26 28" fill="none" xmlns="http://www.w3.org/2000/svg">
<path d="M9.65714 0C12.2184 0 14.6747 1.09571 16.4858 3.04609C18.2968 4.99647 19.3143 7.64175 19.3143 10.4C19.3143 12.976 18.4377 15.344 16.9966 17.168L17.3977 17.6H18.5714L26 25.6L23.7714 28L16.3429 20V18.736L15.9417 18.304C14.248 19.856 12.0491 20.8 9.65714 20.8C7.09591 20.8 4.63958 19.7043 2.82851 17.7539C1.01745 15.8035 0 13.1583 0 10.4C0 7.64175 1.01745 4.99647 2.82851 3.04609C4.63958 1.09571 7.09591 0 9.65714 0ZM9.65714 3.2C5.94286 3.2 2.97143 6.4 2.97143 10.4C2.97143 14.4 5.94286 17.6 9.65714 17.6C13.3714 17.6 16.3429 14.4 16.3429 10.4C16.3429 6.4 13.3714 3.2 9.65714 3.2Z" fill="#CBCBCB"/>
</svg>
