<svg width="56" height="56" viewBox="0 0 56 56" fill="none" xmlns="http://www.w3.org/2000/svg">
<path d="M27.9714 0C12.5118 0 0 12.4942 0 27.9353C0 43.3751 12.5101 55.8707 27.9714 55.8707C43.431 55.8707 55.9427 43.3765 55.9427 27.9353C55.9427 12.4956 43.4324 0 27.9714 0ZM38.0496 31.0364L24.9059 38.6212C23.7971 39.261 22.4299 39.2621 21.3192 38.6221C20.2093 37.9825 19.5256 36.7999 19.5256 35.5202V20.3506C19.5256 19.0708 20.2094 17.8883 21.3192 17.2487C21.8738 16.9289 22.4928 16.7691 23.1118 16.7691C23.7313 16.7691 24.3509 16.9293 24.9059 17.2494L38.0497 24.8342C39.1586 25.4741 39.8416 26.6561 39.8416 27.9352C39.8416 29.2145 39.1585 30.3964 38.0496 31.0364Z" fill="#111111"/>
</svg>
