<svg width="35" height="32" viewBox="0 0 35 32" fill="none" xmlns="http://www.w3.org/2000/svg">
<path d="M9.77275 4.01428C9.71294 4.01899 9.51914 4.04019 9.34209 4.06138C5.78913 4.46643 2.87259 7.11099 2.162 10.5703C1.84379 12.1246 2.0017 14.1192 2.57113 15.8053C3.17406 17.5785 4.18611 19.1281 5.91354 20.9202C6.7318 21.7679 7.43043 22.4038 9.71294 24.3819C10.2656 24.8599 10.8805 25.3945 11.0767 25.5711C13.5267 27.7376 15.2278 29.5556 16.6897 31.5691L17.0007 32H17.3165L17.6323 31.9976L17.9434 31.5455C19.276 29.6098 20.8431 27.8718 23.1711 25.7501C23.6281 25.3309 24.1473 24.8717 25.6283 23.5765C27.9156 21.5701 29.0855 20.4139 30.033 19.2199C31.5714 17.2771 32.349 15.445 32.5787 13.2078C32.6241 12.7463 32.6194 11.6418 32.5667 11.2415C32.3155 9.34579 31.5116 7.7162 30.1789 6.40451C28.8463 5.09283 27.1882 4.29923 25.2646 4.05432C24.8028 3.9978 23.798 3.9978 23.3266 4.05432C21.5729 4.27332 20.0273 4.96567 18.7329 6.11251C18.2759 6.51755 17.7615 7.0945 17.4529 7.549C17.3811 7.65497 17.3165 7.7421 17.3093 7.7421C17.3022 7.7421 17.2376 7.65497 17.1658 7.549C16.8571 7.0945 16.3427 6.51755 15.8858 6.11251C14.6153 4.98686 13.0865 4.29216 11.3925 4.0708C11.0432 4.0237 10.0479 3.99073 9.77275 4.01428Z" fill="#9A9A9A"/>
<path d="M9.77275 4.01428C9.71294 4.01899 9.51914 4.04019 9.34209 4.06138C5.78913 4.46643 2.87259 7.11099 2.162 10.5703C1.84379 12.1246 2.0017 14.1192 2.57113 15.8053C3.17406 17.5785 4.18611 19.1281 5.91354 20.9202C6.7318 21.7679 7.43043 22.4038 9.71294 24.3819C10.2656 24.8599 10.8805 25.3945 11.0767 25.5711C13.5267 27.7376 15.2278 29.5556 16.6897 31.5691L17.0007 32H17.3165L17.6323 31.9976L17.9434 31.5455C19.276 29.6098 20.8431 27.8718 23.1711 25.7501C23.6281 25.3309 24.1473 24.8717 25.6283 23.5765C27.9156 21.5701 29.0855 20.4139 30.033 19.2199C31.5714 17.2771 32.349 15.445 32.5787 13.2078C32.6241 12.7463 32.6194 11.6418 32.5667 11.2415C32.3155 9.34579 31.5116 7.7162 30.1789 6.40451C28.8463 5.09283 27.1882 4.29923 25.2646 4.05432C24.8028 3.9978 23.798 3.9978 23.3266 4.05432C21.5729 4.27332 20.0273 4.96567 18.7329 6.11251C18.2759 6.51755 17.7615 7.0945 17.4529 7.549C17.3811 7.65497 17.3165 7.7421 17.3093 7.7421C17.3022 7.7421 17.2376 7.65497 17.1658 7.549C16.8571 7.0945 16.3427 6.51755 15.8858 6.11251C14.6153 4.98686 13.0865 4.29216 11.3925 4.0708C11.0432 4.0237 10.0479 3.99073 9.77275 4.01428Z" fill="#9A9A9A"/>
</svg>
