<svg width="57" height="57" viewBox="0 0 57 57" fill="none" xmlns="http://www.w3.org/2000/svg">
<path d="M16.6775 55.9999H5.80509C3.15132 55.9999 1 53.8777 1 51.2598V5.78457C1 3.16666 3.15132 1.04443 5.80509 1.04443H16.6775C19.3313 1.04443 21.4826 3.16666 21.4826 5.78457V51.2598C21.4826 53.8777 19.3313 55.9999 16.6775 55.9999Z" fill="black"/>
<path d="M51.1949 55.9555H40.3224C37.6686 55.9555 35.5173 53.8332 35.5173 51.2153V5.74014C35.5173 3.12223 37.6686 1 40.3224 1H51.1949C53.8486 1 56 3.12223 56 5.74014V51.2153C56 53.8332 53.8486 55.9555 51.1949 55.9555Z" fill="black"/>
<path d="M17.5107 1.12744C18.4485 1.99246 19.0437 3.21479 19.0437 4.58148V50.0567C19.0437 52.6746 16.8924 54.7968 14.2386 54.7968H3.36617C3.08079 54.7968 2.80517 54.7607 2.5332 54.7138C3.39178 55.5054 4.53695 55.9999 5.8053 55.9999H16.6777C19.3315 55.9999 21.4828 53.8777 21.4828 51.2598V5.78456C21.4828 3.44818 19.7657 1.51844 17.5107 1.12744Z" fill="black"/>
<path d="M52.028 1.08301C52.9659 1.94802 53.561 3.17035 53.561 4.53705V50.0123C53.561 52.6302 51.4097 54.7524 48.7559 54.7524H37.8835C37.5981 54.7524 37.3225 54.7163 37.0505 54.6694C37.9091 55.461 39.0543 55.9555 40.3226 55.9555H51.1951C53.8488 55.9555 56.0002 53.8332 56.0002 51.2153V5.74013C56.0002 3.40375 54.283 1.47281 52.028 1.08301Z" fill="black"/>
<path d="M16.6775 55.9999H5.80509C3.15132 55.9999 1 53.8777 1 51.2598V5.78457C1 3.16666 3.15132 1.04443 5.80509 1.04443H16.6775C19.3313 1.04443 21.4826 3.16666 21.4826 5.78457V51.2598C21.4826 53.8777 19.3313 55.9999 16.6775 55.9999Z" stroke="black" stroke-miterlimit="10"/>
<path d="M51.1949 55.9555H40.3224C37.6686 55.9555 35.5173 53.8332 35.5173 51.2153V5.74014C35.5173 3.12223 37.6686 1 40.3224 1H51.1949C53.8486 1 56 3.12223 56 5.74014V51.2153C56 53.8332 53.8486 55.9555 51.1949 55.9555Z" stroke="black" stroke-miterlimit="10"/>
</svg>
